<?xml version="1.0" encoding="UTF-8"?>
<svg id="Layer_1" data-name="Layer 1" xmlns="http://www.w3.org/2000/svg" viewBox="0 0 774.76 24.02">
  <defs>
    <style>
      .cls-1 {
        fill: none;
      }

      .cls-2 {
        fill: red;
      }
    </style>
  </defs>
  <path class="cls-2" d="m769.76,24.02c-1.3,0-2.58-.51-3.54-1.46l-7.01-7.01c-.94-.94-1.46-2.21-1.46-3.54s.53-2.6,1.46-3.54l7.01-7.01c.96-.96,2.24-1.46,3.54-1.46.64,0,1.29.12,1.91.38,1.87.77,3.09,2.6,3.09,4.62v14.02c0,2.02-1.22,3.85-3.09,4.62-.62.26-1.27.38-1.91.38Z"/>
  <path class="cls-1" d="m5,24.02c-.64,0-1.29-.12-1.91-.38-1.87-.77-3.09-2.6-3.09-4.62V5C0,2.98,1.22,1.15,3.09.38c.62-.26,1.27-.38,1.91-.38,1.3,0,2.58.51,3.54,1.46l7.01,7.01c1.95,1.95,1.95,5.12,0,7.07l-7.01,7.01c-.96.96-2.24,1.46-3.54,1.46Z"/>
</svg>